<svg width="534" height="534" viewBox="0 0 534 534" fill="none" xmlns="http://www.w3.org/2000/svg">
<path d="M267.001 0.333313C194.578 0.333313 185.497 0.640553 157.053 1.93779C128.67 3.23264 109.285 7.74121 92.3227 14.3322C74.787 21.147 59.9156 30.2658 45.0911 45.0903C30.2658 59.9148 21.1471 74.7878 14.333 92.3234C7.74044 109.285 3.23346 128.67 1.93702 157.053C0.639789 185.496 0.333344 194.578 0.333344 267.001C0.333344 339.422 0.639789 348.503 1.93702 376.947C3.23346 405.33 7.74044 424.715 14.333 441.677C21.1478 459.212 30.2666 474.084 45.0911 488.91C59.9164 503.734 74.787 512.853 92.3227 519.668C109.285 526.259 128.67 530.767 157.053 532.062C185.497 533.359 194.578 533.667 267.001 533.667C339.422 533.667 348.504 533.359 376.947 532.062C405.33 530.767 424.715 526.259 441.677 519.668C459.212 512.853 474.084 503.734 488.91 488.91C503.734 474.084 512.853 459.212 519.668 441.677C526.259 424.715 530.767 405.33 532.062 376.947C533.359 348.503 533.667 339.422 533.667 267.001C533.667 194.578 533.359 185.496 532.062 157.053C530.767 128.67 526.259 109.285 519.668 92.3234C512.853 74.7878 503.734 59.9148 488.91 45.0903C474.084 30.2658 459.212 21.147 441.677 14.3322C424.715 7.74121 405.33 3.23264 376.947 1.93779C348.504 0.640553 339.422 0.333313 267.001 0.333313ZM267.001 48.381C338.203 48.381 346.637 48.6533 374.756 49.9363C400.756 51.1216 414.876 55.4658 424.272 59.1177C436.72 63.9558 445.603 69.7338 454.934 79.0653C464.266 88.3968 470.044 97.2806 474.882 109.727C478.534 119.124 482.878 133.244 484.064 159.244C485.347 187.363 485.619 195.797 485.619 267C485.619 338.203 485.347 346.637 484.064 374.756C482.878 400.756 478.534 414.876 474.882 424.272C470.044 436.72 464.266 445.603 454.934 454.934C445.603 464.266 436.719 470.044 424.273 474.882C414.876 478.534 400.756 482.878 374.756 484.064C346.642 485.347 338.208 485.619 267 485.619C195.792 485.619 187.36 485.347 159.244 484.063C133.244 482.878 119.124 478.534 109.728 474.882C97.2798 470.044 88.3968 464.266 79.0661 454.934C69.7346 445.603 63.9558 436.719 59.1178 424.273C55.4658 414.876 51.1224 400.756 49.9363 374.756C48.6533 346.637 48.381 338.203 48.381 267C48.381 195.797 48.6533 187.363 49.9363 159.244C51.1224 133.244 55.4658 119.124 59.1178 109.728C63.9558 97.2798 69.7346 88.3968 79.0653 79.0661C88.3968 69.7338 97.2806 63.9558 109.727 59.1177C119.124 55.4658 133.244 51.1216 159.244 49.9363C187.363 48.6533 195.797 48.381 267 48.381" fill="#100F0D"/>
<path d="M267.001 355.889C217.908 355.889 178.111 316.092 178.111 267.001C178.111 217.908 217.908 178.111 267.001 178.111C316.092 178.111 355.889 217.908 355.889 267.001C355.889 316.092 316.092 355.889 267.001 355.889ZM267.001 130.063C191.371 130.063 130.063 191.371 130.063 267.001C130.063 342.629 191.371 403.937 267.001 403.937C342.629 403.937 403.937 342.629 403.937 267.001C403.937 191.371 342.629 130.063 267.001 130.063V130.063ZM441.348 124.653C441.348 142.327 427.02 156.652 409.347 156.652C391.675 156.652 377.348 142.327 377.348 124.653C377.348 106.98 391.675 92.6521 409.347 92.6521C427.02 92.6521 441.348 106.98 441.348 124.653" fill="#100F0D"/>
</svg>
